<svg width="1268" height="640" viewBox="0 0 1268 640" fill="none" xmlns="http://www.w3.org/2000/svg">
<rect width="1268" height="640" fill="#CFD8DC"/>
<path d="M384 195C314.987 195 259 250.987 259 320C259 389.013 314.987 445 384 445C453.013 445 509 389.013 509 320C509 250.987 453.013 195 384 195ZM377.487 420.2V341.794H333.9L396.525 219.8V298.206H438.484L377.487 420.2Z" fill="black"/>
<path d="M697.55 286.543C697.55 292.642 695.753 298.506 692.157 304.136C688.718 309.609 683.169 313.831 675.509 316.802C685.357 319.305 692.861 324.23 698.019 331.58C703.334 338.774 705.992 346.123 705.992 353.63C705.992 367.547 701.302 379.276 691.923 388.815C682.544 398.354 670.038 403.123 654.406 403.123H585V241.506H649.716C664.254 241.506 675.822 245.572 684.42 253.704C693.173 261.835 697.55 272.782 697.55 286.543ZM619.469 305.309H646.434C650.811 305.309 654.406 303.745 657.22 300.617C660.034 297.49 661.44 293.502 661.44 288.654C661.44 283.494 660.112 279.428 657.454 276.457C654.953 273.329 651.202 271.765 646.199 271.765H619.469V305.309ZM651.827 333.691H619.469V372.864H652.53C658.001 372.864 662.222 370.909 665.192 367C668.319 362.934 669.882 358.243 669.882 352.926C669.882 347.922 668.24 343.465 664.958 339.556C661.831 335.646 657.454 333.691 651.827 333.691Z" fill="black"/>
<path d="M780.49 373.099C787.525 373.099 793.387 370.831 798.076 366.296C802.922 361.605 805.345 355.506 805.345 348C805.345 340.807 802.922 334.864 798.076 330.173C793.231 325.481 787.368 323.136 780.49 323.136C773.612 323.136 767.75 325.481 762.904 330.173C758.215 334.864 755.87 340.807 755.87 348C755.87 355.506 758.215 361.605 762.904 366.296C767.75 370.831 773.612 373.099 780.49 373.099ZM820.821 389.284C809.879 399.761 796.435 405 780.49 405C764.546 405 751.102 399.761 740.16 389.284C729.217 378.65 723.746 364.889 723.746 348C723.746 331.111 729.217 317.428 740.16 306.951C751.102 296.473 764.546 291.235 780.49 291.235C796.435 291.235 809.879 296.473 820.821 306.951C831.92 317.428 837.469 331.111 837.469 348C837.469 364.889 831.92 378.65 820.821 389.284Z" fill="black"/>
<path d="M860.833 234H893.426V403.123H860.833V234Z" fill="black"/>
<path d="M966.021 293.58H989V319.383H966.021V403.123H933.663V319.383H913.732V293.58H933.663V251.593H966.021V293.58Z" fill="black"/>
</svg>
